# xmcd CD database file
#
# Track frame offsets:
#	150
#	18620
#	48392
#
# Disc length: 4440 seconds
#
# Revision: 0
# Processed by: cddbd v1.5PL3 Copyright (c) Steve Scherf et al.
# Submitted via: CDex 1.51
#
DISCID=1f115603
DTITLE=flame - ＦＵＮＤＡＭＥＮＴＡＬ　ＬＯＯＰ
DYEAR=2004
DGENRE=JPop
TTITLE0=ＦＵＮＤＡＭＥＮＴＡＬ　ＬＯＯＰ　＜ＯＲＩＧＩＮＡＬ　ＦＵＬＬ　ＭＩＸ＞
TTITLE1=ＦＵＮＤＡＭＥＮＴＡＬ　ＬＯＯＰ　＜ＬＥＳＳ　ＶＯＣＡＬ＞
TTITLE2=Data
EXTD=YEAR: 2004
EXTT0=
EXTT1=
EXTT2=
PLAYORDER=
